<mxfile host="app.diagrams.net" modified="2022-01-13T13:47:18.714Z" agent="5.0 (Windows NT 10.0; Win64; x64) AppleWebKit/537.36 (KHTML, like Gecko) Chrome/97.0.4692.71 Safari/537.36 Edg/97.0.1072.55" etag="x4DHqVplXBdbrDByGQPO" version="16.2.6" type="github">
  <diagram id="Gj4WCSod_vw0RySO0bRQ" name="Page-1">
    <mxGraphModel dx="2062" dy="1146" grid="1" gridSize="13" guides="1" tooltips="1" connect="1" arrows="1" fold="1" page="1" pageScale="1" pageWidth="827" pageHeight="1169" math="0" shadow="0">
      <root>
        <mxCell id="0" />
        <mxCell id="1" parent="0" />
        <mxCell id="Cjo3V0ud0yS6phtT377a-1" value="form" style="whiteSpace=wrap;html=1;align=center;direction=west;" parent="1" vertex="1">
          <mxGeometry x="120" y="234" width="88" height="52" as="geometry" />
        </mxCell>
        <mxCell id="wqbJNurE34aJsDIawcam-4" value="input" style="whiteSpace=wrap;html=1;align=center;direction=west;" vertex="1" parent="1">
          <mxGeometry x="370" y="260" width="88" height="52" as="geometry" />
        </mxCell>
        <mxCell id="wqbJNurE34aJsDIawcam-5" value="" style="edgeStyle=entityRelationEdgeStyle;fontSize=12;html=1;endArrow=ERoneToMany;rounded=0;exitX=0;exitY=0.5;exitDx=0;exitDy=0;entryX=1;entryY=0.5;entryDx=0;entryDy=0;" edge="1" parent="1" source="Cjo3V0ud0yS6phtT377a-1" target="wqbJNurE34aJsDIawcam-4">
          <mxGeometry width="100" height="100" relative="1" as="geometry">
            <mxPoint x="364" y="633" as="sourcePoint" />
            <mxPoint x="464" y="533" as="targetPoint" />
          </mxGeometry>
        </mxCell>
        <mxCell id="wqbJNurE34aJsDIawcam-6" value="user" style="whiteSpace=wrap;html=1;align=center;direction=west;" vertex="1" parent="1">
          <mxGeometry x="104" y="416" width="88" height="52" as="geometry" />
        </mxCell>
      </root>
    </mxGraphModel>
  </diagram>
</mxfile>
